<?xml version="1.0" encoding="UTF-8"?>
<svg width="24px" height="24px" viewBox="0 0 24 24" version="1.1" xmlns="http://www.w3.org/2000/svg" xmlns:xlink="http://www.w3.org/1999/xlink">
    <!-- Generator: Sketch 46.2 (44496) - http://www.bohemiancoding.com/sketch -->
    <title>Icon</title>
    <desc>Created with Sketch.</desc>
    <defs></defs>
    <g id="Page-1" stroke="none" stroke-width="1" fill="none" fill-rule="evenodd">
        <g id="Landing-Page" transform="translate(-80.000000, -921.000000)" fill-rule="nonzero" fill="#929292">
            <g id="Tutors-section" transform="translate(60.000000, 498.000000)">
                <g id="Card-Tutor" transform="translate(0.000000, 118.000000)">
                    <g id="Card" transform="translate(0.000000, 153.000000)">
                        <g id="Students-so-far" transform="translate(16.000000, 122.000000)">
                            <g id="Student-icon" transform="translate(0.000000, 22.000000)">
                                <path d="M28.0017754,32.0021036 L28.0017754,29.4837162 C28.0017754,28.2604098 27.2107096,27.2218135 26.1127154,26.8540808 L26.1127154,26.8540808 C26.0262672,26.8247804 20.4059677,25.3891509 19.6017283,23.7922517 C19.2347926,23.0626465 19.5966183,22.1280786 19.9628508,21.4834682 C20.1304964,21.2578311 20.2945322,21.0190674 20.4521453,20.7685367 L20.4521453,20.7670834 L20.4521453,20.7670834 C21.4044341,19.2435057 22.1310858,17.2394471 22.2049699,14.762221 C22.3163117,11.0354352 19.4325357,8.0087667 16.0090215,8 L16.0090215,8 L16.000958,8 L15.9928477,8 L15.9928477,8 C12.5699899,8.0087667 9.68626075,11.0354352 9.79830576,14.7623148 C9.87228359,17.2395877 10.5982321,19.2436463 11.5503803,20.7671771 L11.5503803,20.7671771 C11.5503803,20.7671771 11.5511773,20.7671771 11.5511773,20.7686304 C11.7079465,21.0191612 11.8720292,21.2579718 12.0397216,21.483562 C12.406001,22.1281724 12.7677798,23.0627871 12.4008441,23.7923455 C11.597261,25.3891509 5.9762583,26.8248741 5.88981019,26.8541746 L5.88981019,26.8541746 C4.79186286,27.222001 4,28.2605035 4,29.4839038 L4,32.0021974 L28.0017754,32.0021036 L28.0017754,32.0021036 Z" id="Icon"></path>
                            </g>
                        </g>
                    </g>
                </g>
            </g>
        </g>
    </g>
</svg>