<?xml version="1.0" encoding="UTF-8"?>
<svg width="131px" height="13px" viewBox="0 0 131 13" version="1.1" xmlns="http://www.w3.org/2000/svg" xmlns:xlink="http://www.w3.org/1999/xlink">
    <!-- Generator: Sketch 46.2 (44496) - http://www.bohemiancoding.com/sketch -->
    <title>Logo</title>
    <desc>Created with Sketch.</desc>
    <defs></defs>
    <g id="Page-1" stroke="none" stroke-width="1" fill="none" fill-rule="evenodd">
        <g id="Landing-Page" transform="translate(-20.000000, -24.000000)" fill="#2A3849">
            <g id="Intro-section">
                <g id="Header" transform="translate(20.000000, 16.000000)">
                    <path d="M3.344,10.88 L0.112,10.88 L0.112,8.672 L9.072,8.672 L9.072,10.88 L5.84,10.88 L5.84,20 L3.344,20 L3.344,10.88 Z M22.088,15.632 C22.088,16.3040034 21.9866677,16.9226638 21.784,17.488 C21.5813324,18.0533362 21.280002,18.5439979 20.88,18.96 C20.479998,19.3760021 19.9813364,19.7013322 19.384,19.936 C18.7866637,20.1706678 18.0986706,20.288 17.32,20.288 C16.5306628,20.288 15.8373364,20.1706678 15.24,19.936 C14.6426637,19.7013322 14.144002,19.3760021 13.744,18.96 C13.343998,18.5439979 13.0426677,18.0533362 12.84,17.488 C12.6373324,16.9226638 12.536,16.3040034 12.536,15.632 L12.536,8.672 L15.032,8.672 L15.032,15.536 C15.032,15.8880018 15.0879995,16.2133318 15.2,16.512 C15.3120006,16.8106682 15.4693324,17.0693322 15.672,17.288 C15.8746677,17.5066678 16.117332,17.6773327 16.4,17.8 C16.6826681,17.9226673 16.9893317,17.984 17.32,17.984 C17.6506684,17.984 17.9546653,17.9226673 18.232,17.8 C18.5093348,17.6773327 18.7493324,17.5066678 18.952,17.288 C19.1546677,17.0693322 19.3119995,16.8106682 19.424,16.512 C19.5360006,16.2133318 19.592,15.8880018 19.592,15.536 L19.592,8.672 L22.088,8.672 L22.088,15.632 Z M28.7840001,10.88 L25.5520001,10.88 L25.5520001,8.672 L34.5120001,8.672 L34.5120001,10.88 L31.2800001,10.88 L31.2800001,20 L28.7840001,20 L28.7840001,10.88 Z M37.3680001,14.336 C37.3680001,13.4293288 37.5199986,12.6080037 37.8240001,11.872 C38.1280017,11.1359963 38.5519974,10.5093359 39.0960001,9.992 C39.6400029,9.47466408 40.2853297,9.07733472 41.0320001,8.8 C41.7786705,8.52266528 42.5946624,8.384 43.4800001,8.384 C44.3653379,8.384 45.1813297,8.52266528 45.9280001,8.8 C46.6746705,9.07733472 47.3199974,9.47466408 47.8640001,9.992 C48.4080029,10.5093359 48.8319986,11.1359963 49.1360001,11.872 C49.4400017,12.6080037 49.5920001,13.4293288 49.5920001,14.336 C49.5920001,15.2426712 49.4400017,16.0639963 49.1360001,16.8 C48.8319986,17.5360037 48.4080029,18.1626641 47.8640001,18.68 C47.3199974,19.1973359 46.6746705,19.5946653 45.9280001,19.872 C45.1813297,20.1493347 44.3653379,20.288 43.4800001,20.288 C42.5946624,20.288 41.7786705,20.1493347 41.0320001,19.872 C40.2853297,19.5946653 39.6400029,19.1973359 39.0960001,18.68 C38.5519974,18.1626641 38.1280017,17.5360037 37.8240001,16.8 C37.5199986,16.0639963 37.3680001,15.2426712 37.3680001,14.336 Z M39.9600001,14.336 C39.9600001,14.869336 40.042666,15.3573311 40.2080001,15.8 C40.3733343,16.2426689 40.6106653,16.626665 40.9200001,16.952 C41.229335,17.277335 41.599998,17.5306658 42.0320001,17.712 C42.4640023,17.8933342 42.9466641,17.984 43.4800001,17.984 C44.0133361,17.984 44.495998,17.8933342 44.9280001,17.712 C45.3600023,17.5306658 45.7306653,17.277335 46.0400001,16.952 C46.349335,16.626665 46.586666,16.2426689 46.7520001,15.8 C46.9173343,15.3573311 47.0000001,14.869336 47.0000001,14.336 C47.0000001,13.8133307 46.9173343,13.3280022 46.7520001,12.88 C46.586666,12.4319978 46.349335,12.045335 46.0400001,11.72 C45.7306653,11.394665 45.3600023,11.1413342 44.9280001,10.96 C44.495998,10.7786658 44.0133361,10.688 43.4800001,10.688 C42.9466641,10.688 42.4640023,10.7786658 42.0320001,10.96 C41.599998,11.1413342 41.229335,11.394665 40.9200001,11.72 C40.6106653,12.045335 40.3733343,12.4319978 40.2080001,12.88 C40.042666,13.3280022 39.9600001,13.8133307 39.9600001,14.336 Z M53.4880002,8.672 L57.8720002,8.672 C58.4480031,8.672 58.9946643,8.72799944 59.5120002,8.84 C60.0293361,8.95200056 60.4826649,9.13866536 60.8720002,9.4 C61.2613355,9.66133464 61.5706657,10.0133311 61.8000002,10.456 C62.0293347,10.8986689 62.1440002,11.4506634 62.1440002,12.112 C62.1440002,12.912004 61.9360023,13.5919972 61.5200002,14.152 C61.1039981,14.7120028 60.4960042,15.0666659 59.6960002,15.216 L62.5760002,20 L59.5840002,20 L57.2160002,15.472 L55.9840002,15.472 L55.9840002,20 L53.4880002,20 L53.4880002,8.672 Z M55.9840002,13.36 L57.4560002,13.36 C57.6800013,13.36 57.9173323,13.3520001 58.1680002,13.336 C58.4186681,13.3199999 58.6453325,13.2720004 58.8480002,13.192 C59.0506679,13.1119996 59.2186662,12.9866675 59.3520002,12.816 C59.4853342,12.6453325 59.5520002,12.4053349 59.5520002,12.096 C59.5520002,11.8079986 59.4933341,11.5786675 59.3760002,11.408 C59.2586663,11.2373325 59.1093344,11.1066671 58.9280002,11.016 C58.746666,10.9253329 58.538668,10.8640002 58.3040002,10.832 C58.0693324,10.7999998 57.8400013,10.784 57.6160002,10.784 L55.9840002,10.784 L55.9840002,13.36 Z M66.0560002,8.672 L69.8320002,8.672 L72.4400002,16.064 L72.4720002,16.064 L75.0960002,8.672 L78.8560002,8.672 L78.8560002,20 L76.3600002,20 L76.3600002,11.312 L76.3280002,11.312 L73.3520002,20 L71.4480002,20 L68.5840002,11.312 L68.5520002,11.312 L68.5520002,20 L66.0560002,20 L66.0560002,8.672 Z M87.0880003,8.672 L89.1520003,8.672 L94.0800003,20 L91.2640003,20 L90.2880003,17.6 L85.8880003,17.6 L84.9440003,20 L82.1920003,20 L87.0880003,8.672 Z M88.0480003,11.968 L86.6720003,15.488 L89.4400003,15.488 L88.0480003,11.968 Z M98.1360003,10.88 L94.9040003,10.88 L94.9040003,8.672 L103.864,8.672 L103.864,10.88 L100.632,10.88 L100.632,20 L98.1360003,20 L98.1360003,10.88 Z M114.736,11.616 C114.490666,11.3173318 114.189336,11.0880008 113.832,10.928 C113.474665,10.7679992 113.061336,10.688 112.592,10.688 C112.122665,10.688 111.688002,10.7786658 111.288,10.96 C110.887998,11.1413342 110.541335,11.394665 110.248,11.72 C109.954666,12.045335 109.725335,12.4319978 109.56,12.88 C109.394666,13.3280022 109.312,13.8133307 109.312,14.336 C109.312,14.869336 109.394666,15.3573311 109.56,15.8 C109.725335,16.2426689 109.951999,16.626665 110.24,16.952 C110.528002,17.277335 110.866665,17.5306658 111.256,17.712 C111.645336,17.8933342 112.063998,17.984 112.512,17.984 C113.024003,17.984 113.477332,17.8773344 113.872,17.664 C114.266669,17.4506656 114.591999,17.1520019 114.848,16.768 L116.928,18.32 C116.447998,18.9920034 115.840004,19.4879984 115.104,19.808 C114.367997,20.1280016 113.610671,20.288 112.832,20.288 C111.946663,20.288 111.130671,20.1493347 110.384,19.872 C109.63733,19.5946653 108.992003,19.1973359 108.448,18.68 C107.903998,18.1626641 107.480002,17.5360037 107.176,16.8 C106.871999,16.0639963 106.72,15.2426712 106.72,14.336 C106.72,13.4293288 106.871999,12.6080037 107.176,11.872 C107.480002,11.1359963 107.903998,10.5093359 108.448,9.992 C108.992003,9.47466408 109.63733,9.07733472 110.384,8.8 C111.130671,8.52266528 111.946663,8.384 112.832,8.384 C113.152002,8.384 113.485332,8.41333304 113.832,8.472 C114.178669,8.53066696 114.519999,8.62399936 114.856,8.752 C115.192002,8.88000064 115.514666,9.0506656 115.824,9.264 C116.133335,9.4773344 116.410666,9.73866512 116.656,10.048 L114.736,11.616 Z M120.488,8.672 L122.984,8.672 L122.984,12.896 L127.832,12.896 L127.832,8.672 L130.328,8.672 L130.328,20 L127.832,20 L127.832,15.104 L122.984,15.104 L122.984,20 L120.488,20 L120.488,8.672 Z" id="Logo"></path>
                </g>
            </g>
        </g>
    </g>
</svg>