<?xml version="1.0" encoding="UTF-8"?>
<svg width="125px" height="125px" viewBox="0 0 125 125" version="1.1" xmlns="http://www.w3.org/2000/svg" xmlns:xlink="http://www.w3.org/1999/xlink">
    <!-- Generator: Sketch 46.2 (44496) - http://www.bohemiancoding.com/sketch -->
    <title>User</title>
    <desc>Created with Sketch.</desc>
    <defs></defs>
    <g id="Page-1" stroke="none" stroke-width="1" fill="none" fill-rule="evenodd">
        <g id="Landing-Page" transform="translate(-128.000000, -644.000000)" fill-rule="nonzero" fill="#B6B6B6">
            <g id="Tutors-section" transform="translate(60.000000, 498.000000)">
                <g id="Card-Tutor" transform="translate(0.000000, 118.000000)">
                    <g id="User-photo">
                        <path d="M193,152.999512 L193,139.883881 C193,133.512965 188.88017,128.104009 183.161873,126.188876 L183.161873,126.188876 C182.711656,126.036281 153.441428,118.559598 149.252991,110.243029 C147.342009,106.443283 149.226378,101.576102 151.133698,98.2190048 C152.006787,97.0438986 152.861077,95.8004297 153.681918,94.4956785 L153.681918,94.4881098 L153.681918,94.4881098 C158.641389,86.5533962 162.425753,76.1163631 162.810538,63.2150984 C163.3904,43.8061917 148.371844,28.0434592 130.54236,27.9978026 L130.54236,27.9978026 L130.500366,27.9978026 L130.458128,27.9978026 L130.458128,27.9978026 C112.632062,28.0434592 97.6137507,43.8061917 98.1972753,63.2155867 C98.582548,76.1170956 102.36325,86.5541286 107.321988,94.4885981 L107.321988,94.4885981 C107.321988,94.4885981 107.326139,94.4885981 107.326139,94.4961668 C108.142585,95.800918 108.997119,97.0446311 109.870453,98.2194931 C111.778017,101.576591 113.662142,106.444016 111.75116,110.243518 C107.566141,118.559598 78.2922506,126.036769 77.8420333,126.189365 L77.8420333,126.189365 C72.1239807,128.104986 68,133.513453 68,139.884858 L68,153 L193,152.999512 L193,152.999512 Z" id="User"></path>
                    </g>
                </g>
            </g>
        </g>
    </g>
</svg>